# xmcd
#
# Track frame offsets: 
#        150
#        25578
#        48316
#        70791
#        88097
#        106949
#        126452
#        141803
#        165786
#
# Disc length: 2270 seconds
#
# Revision: 4
# Processed by: cddbd v1.5.2PL0 Copyright (c) Steve Scherf et al.
# Submitted via: ExactAudioCopyFreeDBPlugin 1.0
#
DISCID=6d08dc09
DTITLE=Gary Glenn - G.G.
DYEAR=1980
DGENRE=Soul
TTITLE0=Don't Stop The Music
TTITLE1=Heaven Kind Of Love
TTITLE2=Gonna Give You My Love
TTITLE3=Cause I Love You
TTITLE4=I Need You In My Life
TTITLE5=You're The One
TTITLE6=Got You On My Mind
TTITLE7=It's Love Again
TTITLE8=Fork In The Road
EXTD=
EXTT0=
EXTT1=
EXTT2=
EXTT3=
EXTT4=
EXTT5=
EXTT6=
EXTT7=
EXTT8=
PLAYORDER=
